<?xml version="1.0" encoding="UTF-8"?>
<svg width="48px" height="48px" viewBox="0 0 48 48" version="1.1" xmlns="http://www.w3.org/2000/svg" xmlns:xlink="http://www.w3.org/1999/xlink">
    <!-- Generator: Sketch 48.2 (47327) - http://www.bohemiancoding.com/sketch -->
    <title>Group 2</title>
    <desc>Created with Sketch.</desc>
    <defs>
        <linearGradient x1="0%" y1="0%" x2="100%" y2="100%" id="linearGradient-1">
            <stop stop-color="#9951CA" offset="0%"></stop>
            <stop stop-color="#9A2861" offset="100%"></stop>
        </linearGradient>
    </defs>
    <g id="Artboard-2" stroke="none" stroke-width="1" fill="none" fill-rule="evenodd" transform="translate(-154.000000, -192.000000)">
        <g id="Group-11" transform="translate(80.000000, 168.000000)" fill="url(#linearGradient-1)">
            <g id="Group-3">
                <g id="Group-5" transform="translate(74.000000, 24.000000)">
                    <g id="Group-2">
                        <path d="M41.1428571,16.2857143 L41.1428571,27.4285714 L37.7142857,27.4285714 L37.7142857,16.2857143 L35.7142857,16.2857143 C33.5051467,16.2857143 31.7142857,14.4948533 31.7142857,12.2857143 L31.7142857,4 C31.7142857,1.790861 33.5051467,1.29399067e-15 35.7142857,8.8817842e-16 L44,0 C46.209139,-4.05812251e-16 48,1.790861 48,4 L48,12.2857143 C48,14.4948533 46.209139,16.2857143 44,16.2857143 L41.1428571,16.2857143 Z M16.2857143,7.71428571 L27.4285714,7.71428571 L27.4285714,11.1428571 L16.2857143,11.1428571 L16.2857143,12.2857143 C16.2857143,14.4948533 14.4948533,16.2857143 12.2857143,16.2857143 L4,16.2857143 C1.790861,16.2857143 1.15871992e-15,14.4948533 8.8817842e-16,12.2857143 L0,4 C-2.705415e-16,1.790861 1.790861,1.29399067e-15 4,8.8817842e-16 L12.2857143,0 C14.4948533,-4.05812251e-16 16.2857143,1.790861 16.2857143,4 L16.2857143,7.71428571 Z M4,31.7142857 L12.2857143,31.7142857 C14.4948533,31.7142857 16.2857143,33.5051467 16.2857143,35.7142857 L16.2857143,44 C16.2857143,46.209139 14.4948533,48 12.2857143,48 L4,48 C1.790861,48 1.15871992e-15,46.209139 8.8817842e-16,44 L0,35.7142857 C-2.705415e-16,33.5051467 1.790861,31.7142857 4,31.7142857 Z M35.7142857,31.7142857 L44,31.7142857 C46.209139,31.7142857 48,33.5051467 48,35.7142857 L48,44 C48,46.209139 46.209139,48 44,48 L35.7142857,48 C33.5051467,48 31.7142857,46.209139 31.7142857,44 L31.7142857,35.7142857 C31.7142857,33.5051467 33.5051467,31.7142857 35.7142857,31.7142857 Z M19.7142857,38.5714286 L30.8571429,38.5714286 L30.8571429,42 L19.7142857,42 L19.7142857,38.5714286 Z M6.85714286,19.7142857 L10.2857143,19.7142857 L10.2857143,30.8571429 L6.85714286,30.8571429 L6.85714286,19.7142857 Z" id="Combined-Shape"></path>
                    </g>
                </g>
            </g>
        </g>
    </g>
</svg>