<?xml version="1.0" encoding="UTF-8"?>
<svg width="51px" height="40px" viewBox="0 0 51 40" version="1.1" xmlns="http://www.w3.org/2000/svg" xmlns:xlink="http://www.w3.org/1999/xlink">
    <!-- Generator: Sketch 48.2 (47327) - http://www.bohemiancoding.com/sketch -->
    <title>Group 8</title>
    <desc>Created with Sketch.</desc>
    <defs>
        <linearGradient x1="0%" y1="0%" x2="100%" y2="100%" id="linearGradient-1">
            <stop stop-color="#9951CA" offset="0%"></stop>
            <stop stop-color="#9A2861" offset="100%"></stop>
        </linearGradient>
    </defs>
    <g id="Artboard-2" stroke="none" stroke-width="1" fill="none" fill-rule="evenodd" transform="translate(-152.000000, -556.000000)">
        <g id="Group-11" transform="translate(80.000000, 168.000000)" fill="url(#linearGradient-1)">
            <g id="Group-3" transform="translate(0.000000, 360.000000)">
                <g id="Group-8" transform="translate(72.000000, 28.000000)">
                    <path d="M27.0588235,20.1796401 C27.2747957,20.2779235 27.4735938,20.4147703 27.64461,20.5857864 L33.2143918,26.1555683 C33.4428627,26.3840392 33.5712164,26.6939123 33.5712164,27.0170189 C33.5712164,27.6898537 33.025776,28.2352941 32.3529412,28.2352941 L30.2401918,28.2352941 C29.7097589,28.2352941 29.201051,28.0245804 28.8259783,27.6495077 L24.7058824,23.5294118 L20.5857864,27.6495077 C20.2107137,28.0245804 19.7020059,28.2352941 19.1715729,28.2352941 L17.0588235,28.2352941 C16.3859887,28.2352941 15.8405483,27.6898537 15.8405483,27.0170189 C15.8405483,26.6939123 15.968902,26.3840392 16.1973729,26.1555683 L21.7671547,20.5857864 C21.9381709,20.4147703 22.136969,20.2779235 22.3529412,20.1796401 L22.3529412,13.7647059 C22.3529412,12.6601364 23.2483717,11.7647059 24.3529412,11.7647059 L25.0588235,11.7647059 C26.163393,11.7647059 27.0588235,12.6601364 27.0588235,13.7647059 L27.0588235,20.1796401 Z M16.9411765,0 L31.2941176,0 C33.5032566,1.55629733e-15 35.2941176,1.790861 35.2941176,4 L35.2941176,5.41176471 C35.2941176,7.62090371 33.5032566,9.41176471 31.2941176,9.41176471 L16.9411765,9.41176471 C14.7320375,9.41176471 12.9411765,7.62090371 12.9411765,5.41176471 L12.9411765,4 C12.9411765,1.790861 14.7320375,4.05812251e-16 16.9411765,0 Z M4,30.5882353 L18.3529412,30.5882353 C20.5620802,30.5882353 22.3529412,32.3790963 22.3529412,34.5882353 L22.3529412,36 C22.3529412,38.209139 20.5620802,40 18.3529412,40 L4,40 C1.790861,40 2.705415e-16,38.209139 0,36 L0,34.5882353 C-2.705415e-16,32.3790963 1.790861,30.5882353 4,30.5882353 Z M32.2352941,30.5882353 L46.5882353,30.5882353 C48.7973743,30.5882353 50.5882353,32.3790963 50.5882353,34.5882353 L50.5882353,36 C50.5882353,38.209139 48.7973743,40 46.5882353,40 L32.2352941,40 C30.0261551,40 28.2352941,38.209139 28.2352941,36 L28.2352941,34.5882353 C28.2352941,32.3790963 30.0261551,30.5882353 32.2352941,30.5882353 Z" id="Combined-Shape"></path>
                </g>
            </g>
        </g>
    </g>
</svg>