<?xml version="1.0" encoding="UTF-8"?>
<svg width="48px" height="41px" viewBox="0 0 48 41" version="1.1" xmlns="http://www.w3.org/2000/svg" xmlns:xlink="http://www.w3.org/1999/xlink">
    <!-- Generator: Sketch 48.2 (47327) - http://www.bohemiancoding.com/sketch -->
    <title>Group</title>
    <desc>Created with Sketch.</desc>
    <defs>
        <linearGradient x1="0%" y1="0%" x2="100%" y2="100%" id="linearGradient-1">
            <stop stop-color="#9951CA" offset="0%"></stop>
            <stop stop-color="#9A2861" offset="100%"></stop>
        </linearGradient>
    </defs>
    <g id="Artboard-2" stroke="none" stroke-width="1" fill="none" fill-rule="evenodd" transform="translate(-153.000000, -435.000000)">
        <g id="Group-11" transform="translate(80.000000, 168.000000)" fill="url(#linearGradient-1)">
            <g id="Group-3" transform="translate(0.000000, 240.000000)">
                <g id="Group-7" transform="translate(73.000000, 27.000000)">
                    <g id="Group">
                        <path d="M9.5,19 C4.25329488,19 0,14.7467051 0,9.5 C0,4.25329488 4.25329488,0 9.5,0 C14.7467051,0 19,4.25329488 19,9.5 C19,14.7467051 14.7467051,19 9.5,19 Z M9.5,16 C13.0898509,16 16,13.0898509 16,9.5 C16,5.91014913 13.0898509,3 9.5,3 C5.91014913,3 3,5.91014913 3,9.5 C3,13.0898509 5.91014913,16 9.5,16 Z" id="Combined-Shape"></path>
                        <path d="M3,22.9034853 L45,22.9034853 C46.6568542,22.9034853 48,24.246631 48,25.9034853 L48,25.9356568 C48,27.5925111 46.6568542,28.9356568 45,28.9356568 L3,28.9356568 C1.34314575,28.9356568 2.02906125e-16,27.5925111 0,25.9356568 L0,25.9034853 C-2.02906125e-16,24.246631 1.34314575,22.9034853 3,22.9034853 Z M3,34.9678284 L45,34.9678284 C46.6568542,34.9678284 48,36.3109742 48,37.9678284 L48,38 C48,39.6568542 46.6568542,41 45,41 L3,41 C1.34314575,41 -2.41183085e-16,39.6568542 -4.4408921e-16,38 L-4.4408921e-16,37.9678284 C-6.46995335e-16,36.3109742 1.34314575,34.9678284 3,34.9678284 Z M11.5786667,7.5616622 C11.4168881,7.32931072 11.1742238,7.13471928 10.8506667,6.97788204 C10.5271095,6.82104479 10.1977795,6.74262735 9.86266667,6.74262735 C9.48133143,6.74262735 9.14622367,6.82104479 8.85733333,6.97788204 C8.568443,7.13471928 8.32866762,7.34092812 8.138,7.59651475 C7.94733238,7.85210137 7.80577824,8.139632 7.71333333,8.45911528 C7.62088843,8.77859856 7.57466667,9.10098139 7.57466667,9.42627346 C7.57466667,9.75156552 7.62377729,10.0739484 7.722,10.3934316 C7.82022271,10.7129149 7.96755457,11.0004455 8.164,11.2560322 C8.36044543,11.5116188 8.60599853,11.7178276 8.90066667,11.8746649 C9.19533481,12.0315021 9.53910915,12.1099196 9.932,12.1099196 C10.2555572,12.1099196 10.5791095,12.0460239 10.9026667,11.9182306 C11.2262238,11.7904373 11.4862212,11.6045589 11.6826667,11.3605898 L12.9826667,12.6849866 C12.6359983,13.056749 12.1940027,13.3442796 11.6566667,13.5475871 C11.1193306,13.7508947 10.5386698,13.8525469 9.91466667,13.8525469 C9.30221916,13.8525469 8.7215583,13.753799 8.17266667,13.5563003 C7.62377503,13.3588015 7.14422427,13.0683665 6.734,12.6849866 C6.32377573,12.3016067 6.00022341,11.8369107 5.76333333,11.2908847 C5.52644326,10.7448588 5.408,10.1233279 5.408,9.42627346 C5.408,8.75245418 5.52644326,8.14254071 5.76333333,7.59651475 C6.00022341,7.05048878 6.32088687,6.5857928 6.72533333,6.20241287 C7.1297798,5.81903294 7.60066398,5.52278925 8.138,5.31367292 C8.67533602,5.1045566 9.25021916,5 9.86266667,5 C10.4751142,5 11.0673305,5.11617399 11.6393333,5.34852547 C12.2113362,5.58087694 12.6648872,5.90035543 13,6.30697051 L11.5786667,7.5616622 Z M27,6.81769437 L39,6.81769437 C40.6568542,6.81769437 42,8.16084012 42,9.81769437 L42,9.84986595 C42,11.5067202 40.6568542,12.849866 39,12.849866 L27,12.849866 C25.3431458,12.849866 24,11.5067202 24,9.84986595 L24,9.81769437 C24,8.16084012 25.3431458,6.81769437 27,6.81769437 Z" id="Combined-Shape"></path>
                    </g>
                </g>
            </g>
        </g>
    </g>
</svg>