<?xml version="1.0" encoding="UTF-8"?>
<svg width="31px" height="40px" viewBox="0 0 31 40" version="1.1" xmlns="http://www.w3.org/2000/svg" xmlns:xlink="http://www.w3.org/1999/xlink">
    <!-- Generator: Sketch 48.2 (47327) - http://www.bohemiancoding.com/sketch -->
    <title>Combined Shape</title>
    <desc>Created with Sketch.</desc>
    <defs>
        <linearGradient x1="0%" y1="0%" x2="100%" y2="100%" id="linearGradient-1">
            <stop stop-color="#9951CA" offset="0%"></stop>
            <stop stop-color="#9A2861" offset="100%"></stop>
        </linearGradient>
    </defs>
    <g id="Artboard-2" stroke="none" stroke-width="1" fill="none" fill-rule="evenodd" transform="translate(-162.000000, -676.000000)">
        <g id="Group-11" transform="translate(80.000000, 168.000000)" fill="url(#linearGradient-1)">
            <g id="Group-3" transform="translate(0.000000, 480.000000)">
                <path d="M113,61.5 L113,64.3333333 C108,66.7777778 103,68 98,68 C93,68 88,66.7777778 83,64.3333333 L83,62.9146471 C82.4174038,62.7087289 82,62.1531094 82,61.5 L82,39.5 C82,38.6715729 82.6715729,38 83.5,38 C84.3284271,38 85,38.6715729 85,39.5 L85,61.5 C85,61.6351778 84.9821189,61.7661793 84.9485928,61.8907681 C89.2990619,63.7413671 93.6495309,64.6666667 98,64.6666667 C102.065466,64.6666667 106.130931,63.8586306 110.196397,62.2425584 C110.071415,62.0236183 110,61.7701491 110,61.5 L110,39.5 C110,38.6715729 110.671573,38 111.5,38 C112.328427,38 113,38.6715729 113,39.5 L113,61.5 Z M97,34 C88.7157288,34 82,32.6568542 82,31 C82,29.3431458 88.7157288,28 97,28 C105.284271,28 112,29.3431458 112,31 C112,32.6568542 105.284271,34 97,34 Z M91,50 L97,50 C98.1045695,50 99,50.8954305 99,52 L99,58 C99,59.1045695 98.1045695,60 97,60 L91,60 C89.8954305,60 89,59.1045695 89,58 L89,52 C89,50.8954305 89.8954305,50 91,50 Z M98,38 L104,38 C105.104569,38 106,38.8954305 106,40 L106,46 C106,47.1045695 105.104569,48 104,48 L98,48 C96.8954305,48 96,47.1045695 96,46 L96,40 C96,38.8954305 96.8954305,38 98,38 Z" id="Combined-Shape"></path>
            </g>
        </g>
    </g>
</svg>