<?xml version="1.0" encoding="UTF-8"?>
<svg width="56px" height="40px" viewBox="0 0 56 40" version="1.1" xmlns="http://www.w3.org/2000/svg" xmlns:xlink="http://www.w3.org/1999/xlink">
    <!-- Generator: Sketch 48.2 (47327) - http://www.bohemiancoding.com/sketch -->
    <title>Group 4</title>
    <desc>Created with Sketch.</desc>
    <defs>
        <linearGradient x1="0%" y1="0%" x2="100%" y2="100%" id="linearGradient-1">
            <stop stop-color="#9951CA" offset="0%"></stop>
            <stop stop-color="#9A2861" offset="100%"></stop>
        </linearGradient>
    </defs>
    <g id="Artboard-2" stroke="none" stroke-width="1" fill="none" fill-rule="evenodd" transform="translate(-149.000000, -316.000000)">
        <g id="Group-11" transform="translate(80.000000, 168.000000)" fill="url(#linearGradient-1)">
            <g id="Group-3" transform="translate(0.000000, 120.000000)">
                <g id="Group-6" transform="translate(69.000000, 28.000000)">
                    <g id="Group-4">
                        <path d="M42.0967848,20.8789689 C42.6522093,17.587384 45.5315043,15.0792553 49,15.0792553 C52.8659932,15.0792553 56,18.1951996 56,22.0389117 C56,25.8826237 52.8659932,28.998568 49,28.998568 C46.4090118,28.998568 44.1468083,27.5989859 42.9364754,25.5187398 L33.5,25.5187398 C32.3954305,25.5187398 31.5,24.6233093 31.5,23.5187398 L31.5,22.8789689 C31.5,21.7743994 32.3954305,20.8789689 33.5,20.8789689 L42.0967848,20.8789689 Z M15.1666667,30.9964441 C18.304073,31.5120349 21.4414793,33.0675228 24.5788857,35.6629079 C25.2678302,36.2328298 25.6666544,37.0803527 25.6666544,37.9744755 L25.6666667,38.9243171 C25.6666667,39.1651114 25.5861559,39.3989924 25.4379386,39.5887647 C25.0709743,40.0586128 24.3926037,40.1420167 23.9227506,39.7750588 C20.2262782,36.8880122 16.5298058,35.4444889 12.8333333,35.4444889 C9.13686091,35.4444889 5.44038849,36.8880122 1.74391606,39.7750588 C1.55413878,39.9232697 1.32025774,40.0037805 1.07946341,40.0037805 C0.483292229,40.0037805 -2.95054517e-16,39.5204882 -2.22044605e-16,38.9243171 L0,37.9744841 C1.09499235e-16,37.080355 0.398826993,36.2328261 1.0877821,35.662907 C4.22518807,33.0675225 7.36259403,31.5120348 10.5,30.9964441 L10.5,25.4420494 C7.71141527,25.2587427 4.92283055,24.7468293 2.13424582,23.9063091 L2.13424104,23.9063249 C0.867155328,23.5244068 -2.82020372e-16,22.3573435 -4.4408921e-16,21.033951 L-2.22044605e-16,20.8789689 C-3.35407038e-16,19.9532944 0.750407461,19.202887 1.67608198,19.202887 C1.83957894,19.202887 2.0021962,19.2268093 2.15876666,19.2738938 L2.15875924,19.2739184 C5.7169506,20.3439521 9.27514197,20.8789689 12.8333333,20.8789689 C16.3915247,20.8789689 19.9497161,20.3439521 23.5079074,19.2739184 L23.5079,19.2738938 C24.3943585,19.0073144 25.3290805,19.5098257 25.5956599,20.3962843 C25.6427444,20.5528547 25.6666667,20.715472 25.6666667,20.8789689 L25.6666759,21.0339364 C25.6666759,22.357325 24.7995235,23.5243851 23.5324416,23.9063028 C20.74385,24.7468268 17.9552583,25.2587423 15.1666667,25.4420494 L15.1666667,30.9964441 Z M13.4166667,17.3991408 C8.58417511,17.3991408 4.66666667,13.5042105 4.66666667,8.69957039 C4.66666667,3.89493033 8.58417511,0 13.4166667,0 C18.2491582,0 22.1666667,3.89493033 22.1666667,8.69957039 C22.1666667,13.5042105 18.2491582,17.3991408 13.4166667,17.3991408 Z" id="Combined-Shape"></path>
                    </g>
                </g>
            </g>
        </g>
    </g>
</svg>